# xmcd CD database file
#
# Track frame offsets:
#	150
#	8300
#	22678
#	34445
#	47913
#	62477
#	74952
#	84974
#	95372
#	110642
#	124047
#	132851
#	163065
#
# Disc length: 3110 seconds
#
# Revision: 1
# Processed by: cddbd v1.5.2PL0 Copyright (c) Steve Scherf et al.
# Submitted via: CDex 1.51
#
DISCID=a50c240d
DTITLE=The Mojomatics - Songs For Faraway Lovers
DYEAR=2006
DGENRE=Garage
TTITLE0=Why Don't You Leave Me
TTITLE1=No Place to Go
TTITLE2=Right or Wrong
TTITLE3=Leave This Town
TTITLE4=The Last Train
TTITLE5=I'll Be Back Home
TTITLE6=That Night in 1939
TTITLE7=Stealin' Stealin'
TTITLE8=Liquor Store Blues
TTITLE9=A Fall on the Floor
TTITLE10=Hard Travellin'
TTITLE11=The Riverside
TTITLE12=No Place To Go (Video Track)
EXTD=YEAR: 2006
EXTT0=
EXTT1=
EXTT2=
EXTT3=
EXTT4=
EXTT5=
EXTT6=
EXTT7=
EXTT8=
EXTT9=
EXTT10=
EXTT11=
EXTT12=
PLAYORDER=
